OpenSim_Sub03_CSBaseline_LCS.mot
version=1
nRows=47
nColumns=11
inDegrees=no
endheader
time	Bot_Shank	2nd_Bot_Shank	2nd_Top_Shank	Top_Shank	Bot_Thigh	Med_Thigh	Top_Thigh	BNOx	BNOy	BNOZ
0	1294.19970525	1260.44828212	1152.58680816	1002.90726133	1150.83548049	960.00000000	969.58551368	210.90036871	-75.23158612	-172.42773798
0.01000000	1294.59228623	1260.66475594	1153.66013492	1002.90368370	1150.83683165	960.00000000	969.76266389	210.86510413	-75.23988709	-172.41999621
0.02000000	1294.88727561	1260.87295224	1154.55016481	1002.94084402	1150.90274486	960.00000000	969.91592745	210.83133197	-75.24649950	-172.39999910
0.03000000	1295.01850030	1261.04729051	1155.13807201	1003.03518250	1151.05669295	960.00000000	970.02861856	210.80168765	-75.25119541	-172.37015386
0.04000000	1294.95814527	1261.17174973	1155.37624126	1003.18855466	1151.30310978	960.00000000	970.09331873	210.77746577	-75.25395386	-172.33261595
0.05000000	1294.74341515	1261.24651290	1155.33776415	1003.37809385	1151.61415688	960.00000000	970.11831819	210.75768821	-75.25510464	-172.28911400
0.06000000	1294.41781271	1261.27333261	1155.10742453	1003.57853873	1151.95886970	960.00000000	970.11342884	210.74115669	-75.25501156	-172.24133534
0.07000000	1294.02484073	1261.25396148	1154.77000629	1003.76462795	1152.30628370	960.00000000	970.08846253	210.72667294	-75.25403841	-172.19096727
0.08000000	1293.60800198	1261.19015209	1154.41029330	1003.91110016	1152.62543433	960.00000000	970.05323114	210.71303870	-75.25254896	-172.13969710
0.09000000	1293.21079922	1261.08365705	1154.11306944	1003.99269402	1152.88535703	960.00000000	970.01754655	210.69905569	-75.25090702	-172.08921215
0.10000000	1292.87611099	1260.93640110	1153.96167308	1003.98458384	1153.05554756	960.00000000	969.99107966	210.68353714	-75.24947227	-172.04116504
0.11000000	1292.62254826	1260.75700068	1153.98324875	1003.87888081	1153.12339549	960.00000000	969.97802120	210.66574293	-75.24844439	-171.99586037
0.12000000	1292.43719761	1260.56276500	1154.13194316	1003.68969765	1153.09953512	960.00000000	969.97544293	210.64551321	-75.24781529	-171.95185151
0.13000000	1292.30503878	1260.37158421	1154.35702448	1003.43261750	1152.99615426	960.00000000	969.97994085	210.62272690	-75.24756296	-171.90757485
0.14000000	1292.21105151	1260.20134849	1154.60776085	1003.12322351	1152.82544068	960.00000000	969.98811097	210.59726293	-75.24766541	-171.86146674
0.15000000	1292.14021557	1260.06994800	1154.83342043	1002.77709879	1152.59958218	960.00000000	969.99654928	210.56900022	-75.24810065	-171.81196354
0.16000000	1292.07751068	1259.99527289	1154.98327138	1002.40982650	1152.33076655	960.00000000	970.00185178	210.53781769	-75.24884667	-171.75750163
0.17000000	1292.00791659	1259.99521333	1155.00658185	1002.03698977	1152.03118158	960.00000000	970.00061447	210.50359425	-75.24988148	-171.69651736
0.18000000	1291.91799865	1260.08203349	1154.86472282	1001.67239918	1151.71227464	960.00000000	969.99059182	210.46631757	-75.25114647	-171.62780860
0.19000000	1291.80289832	1260.23756777	1154.58452670	1001.32027800	1151.38148835	960.00000000	969.97580411	210.42656330	-75.25238496	-171.55212855
0.20000000	1291.66064330	1260.43340958	1154.21485669	1000.98162292	1151.04491756	960.00000000	969.96238038	210.38510502	-75.25327363	-171.47088841
0.21000000	1291.48926350	1260.64114460	1153.80459259	1000.65742820	1150.70865608	960.00000000	969.95645127	210.34271647	-75.25348912	-171.38549992
0.22000000	1291.28678881	1260.83235852	1153.40261419	1000.34868810	1150.37879775	960.00000000	969.96414740	210.30017137	-75.25270805	-171.29737479
0.23000000	1291.05124911	1260.97863701	1153.05780130	1000.05639688	1150.06143638	960.00000000	969.99159940	210.25824344	-75.25060705	-171.20792476
0.24000000	1290.78204508	1261.05500386	1152.81380507	999.78191776	1149.76266830	960.00000000	970.04399690	210.21762518	-75.24692002	-171.11841922
0.25000000	1290.48870834	1261.06189245	1152.67563380	999.52934077	1149.48860825	960.00000000	970.11957498	210.17840875	-75.24180422	-171.02907561
0.26000000	1290.18531119	1261.01112483	1152.63097593	999.30397810	1149.24537924	960.00000000	970.21345164	210.14041726	-75.23560661	-170.93963993
0.27000000	1289.88594739	1260.91457678	1152.66743823	999.11114772	1149.03910431	960.00000000	970.32073020	210.10347254	-75.22867510	-170.84985592
0.28000000	1289.60471067	1260.78412408	1152.77262742	998.95616759	1148.87590652	960.00000000	970.43651397	210.06739639	-75.22135754	-170.75946735
0.29000000	1289.35569477	1260.63164249	1152.93415027	998.84435567	1148.76190890	960.00000000	970.55590626	210.03201067	-75.21400182	-170.66821796
0.30000000	1289.15299345	1260.46900779	1153.13961351	998.78102992	1148.70323451	960.00000000	970.67401040	209.99713719	-75.20695583	-170.57585153
0.31000000	1289.01070042	1260.30809576	1153.37662391	998.77150831	1148.70600639	960.00000000	970.78592968	209.96259777	-75.20056743	-170.48211179
0.32000000	1288.94290945	1260.16078217	1153.63278820	998.82110879	1148.77634759	960.00000000	970.88676743	209.92821426	-75.19518452	-170.38674251
0.33000000	1288.96371426	1260.03894280	1153.89571313	998.93514934	1148.92038115	960.00000000	970.97162695	209.89380846	-75.19115496	-170.28948745
0.34000000	1289.08578051	1259.95376792	1154.15310673	999.11811432	1149.14304266	960.00000000	971.03585024	209.85920399	-75.18879695	-170.19010598
0.35000000	1289.30040551	1259.90619092	1154.39419225	999.36201504	1149.43149972	960.00000000	971.07835066	209.82425089	-75.18798454	-170.08859138
0.36000000	1289.58243713	1259.88924936	1154.60935939	999.64926108	1149.75924211	960.00000000	971.10079079	209.78881956	-75.18824985	-169.98511695
0.37000000	1289.90630012	1259.89577770	1154.78902786	999.96201497	1150.09940778	960.00000000	971.10490396	209.75278094	-75.18911623	-169.87986062
0.38000000	1290.24641924	1259.91861042	1154.92361737	1000.28243929	1150.42513468	960.00000000	971.09242349	209.71600597	-75.19010699	-169.77300033
0.39000000	1290.57721923	1259.95058197	1155.00354762	1000.59269660	1150.70956073	960.00000000	971.06508269	209.67836558	-75.19074548	-169.66471402
0.40000000	1290.87312485	1259.98452682	1155.01923832	1000.87494945	1150.92582390	960.00000000	971.02461487	209.63973070	-75.19055503	-169.55517963
0.41000000	1291.10926866	1260.01344901	1154.96154570	1001.11180675	1151.04793226	960.00000000	970.97282222	209.59997825	-75.18907300	-169.44456890
0.42000000	1291.27706319	1260.03425277	1154.83136585	1001.29614359	1151.06990738	960.00000000	970.91309050	209.55912263	-75.18615906	-169.33291144
0.43000000	1291.38420090	1260.04774255	1154.63963476	1001.43110118	1151.00578428	960.00000000	970.85038907	209.51731573	-75.18199525	-169.22009470
0.44000000	1291.43908207	1260.05489236	1154.39772493	1001.52026709	1150.87046815	960.00000000	970.78975617	209.47471542	-75.17677760	-169.10599996
0.45000000	1291.45010700	1260.05667621	1154.11700884	1001.56722891	1150.67886416	960.00000000	970.73623000	209.43147956	-75.17070216	-168.99050848
0.46000000	1291.42567596	1260.05406810	1153.80885901	1001.57557420	1150.44587748	960.00000000	970.69484881	209.38776604	-75.16396497	-168.87350155
